<?xml version="1.0" encoding="UTF-8"?>
<svg xmlns="http://www.w3.org/2000/svg" xmlns:xlink="http://www.w3.org/1999/xlink" width="1920pt" height="1080pt" viewBox="0 0 1920 1080" version="1.1">
<g id="surface1">
<path style=" stroke:none;fill-rule:nonzero;fill:#000000;fill-opacity:1;" d="M 1712.230469 430.542969 C 1712.230469 424.082031 1709.769531 421.3125 1703.308594 421.3125 L 1460.847656 421.3125 C 1454.386719 421.3125 1451.617188 424.082031 1451.617188 430.542969 L 1451.617188 541.003906 C 1451.617188 550.234375 1453.464844 553.003906 1463.308594 553.003906 L 1504.234375 553.003906 C 1510.386719 552.695312 1512.847656 555.773438 1512.847656 562.851562 L 1512.847656 693.621094 C 1512.847656 700.082031 1515.308594 702.851562 1521.773438 702.851562 L 1642.695312 702.851562 C 1649.15625 702.851562 1651.617188 700.082031 1651.617188 693.621094 L 1651.617188 562.851562 C 1651.617188 556.695312 1655.308594 553.929688 1660.234375 553.929688 L 1698.695312 553.929688 C 1708.539062 553.929688 1712.230469 550.234375 1712.230469 541.003906 Z M 1132.851562 605.621094 C 1132.851562 548.390625 1066.082031 531.160156 1026.082031 531.160156 C 1002.390625 531.160156 991.003906 534.234375 983.003906 534.234375 C 974.699219 534.234375 970.390625 531.160156 970.390625 525.621094 C 970.390625 514.851562 987.621094 510.234375 1025.773438 510.234375 C 1050.082031 510.234375 1078.390625 515.46875 1099.003906 526.851562 C 1101.773438 528.390625 1104.234375 528.695312 1105.773438 528.695312 C 1107.621094 528.695312 1110.390625 528.082031 1111.3125 524.390625 C 1113.773438 515.160156 1128.542969 456.390625 1128.542969 451.46875 C 1128.542969 447.46875 1126.082031 443.773438 1122.386719 441.929688 C 1087.003906 423.160156 1032.851562 415.160156 974.699219 415.160156 C 902.082031 415.160156 831.929688 443.46875 831.929688 506.542969 C 831.929688 573.929688 909.773438 596.390625 953.464844 596.390625 C 967.621094 596.390625 985.773438 594.234375 992.542969 594.234375 C 1000.542969 594.234375 1003.621094 597.3125 1003.621094 603.15625 C 1003.621094 612.082031 989.773438 617.3125 952.234375 617.3125 C 917.773438 617.3125 877.773438 604.695312 857.46875 587.773438 C 856.238281 586.851562 854.699219 586.234375 852.238281 586.234375 C 849.773438 586.234375 846.699219 588.082031 845.773438 591.46875 L 826.699219 664.695312 C 825.46875 669.003906 826.390625 673.621094 829.46875 675.773438 C 862.082031 697.621094 909.773438 707.773438 981.464844 707.773438 C 1051.3125 707.773438 1132.851562 681.621094 1132.851562 605.621094 M 483.007812 430.542969 C 483.007812 424.082031 480.238281 421.3125 473.777344 421.3125 L 354.699219 421.3125 C 348.238281 421.3125 345.160156 424.390625 345.777344 430.851562 L 355.929688 530.542969 C 356.546875 536.390625 354.085938 539.160156 349.46875 539.160156 C 345.777344 539.160156 343.625 535.773438 341.160156 527.773438 L 312.855469 430.542969 C 311.007812 424.699219 307.625 421.3125 301.46875 421.3125 L 183.316406 421.3125 C 173.777344 421.3125 171.316406 424.390625 171.316406 433.621094 L 171.316406 693.621094 C 171.316406 699.773438 173.777344 702.851562 180.238281 702.851562 L 299.625 702.851562 C 306.085938 702.851562 309.160156 699.773438 308.546875 693.621094 L 298.390625 596.390625 C 297.777344 591.46875 301.46875 588.695312 304.855469 588.695312 C 308.855469 588.695312 311.929688 590.851562 313.46875 596.082031 L 341.46875 693.929688 C 343.316406 700.082031 346.390625 702.851562 352.855469 702.851562 L 473.777344 702.851562 C 480.238281 702.851562 483.007812 700.082031 483.007812 693.621094 Z M 671.3125 553.929688 C 671.3125 512.695312 671.3125 502.851562 659.3125 502.851562 C 647.3125 502.851562 647.007812 512.082031 647.007812 556.390625 C 647.007812 600.695312 647.3125 610.542969 659.3125 610.542969 C 671.007812 610.542969 671.3125 601.003906 671.3125 553.929688 M 659.3125 707.773438 C 563.621094 707.773438 494.699219 657.3125 494.699219 556.695312 C 494.699219 453.621094 565.160156 415.46875 659.3125 415.46875 C 753.46875 415.46875 823.621094 453.621094 823.621094 556.695312 C 823.621094 657.3125 755.003906 707.773438 659.3125 707.773438 M 1433.773438 693.621094 C 1433.773438 700.082031 1431.308594 702.851562 1424.847656 702.851562 L 1308.542969 702.851562 C 1302.082031 702.851562 1299.3125 700.082031 1299.3125 693.621094 L 1299.3125 611.773438 C 1299.3125 604.390625 1297.464844 601.3125 1288.542969 601.3125 C 1279.621094 601.3125 1277.464844 604.390625 1277.464844 611.464844 L 1277.464844 693.621094 C 1277.464844 700.082031 1275.003906 702.851562 1268.542969 702.851562 L 1152.234375 702.851562 C 1145.773438 702.851562 1143.3125 700.082031 1143.3125 693.621094 L 1143.3125 430.542969 C 1143.3125 424.082031 1145.773438 421.3125 1152.234375 421.3125 L 1268.542969 421.3125 C 1275.003906 421.3125 1277.464844 424.082031 1277.464844 430.542969 L 1277.464844 513.003906 C 1277.464844 520.082031 1279.621094 522.542969 1288.542969 522.542969 C 1297.464844 522.542969 1299.3125 519.46875 1299.3125 513.003906 L 1299.3125 430.542969 C 1299.3125 424.082031 1302.082031 421.3125 1308.542969 421.3125 L 1424.847656 421.3125 C 1431.308594 421.3125 1433.773438 424.390625 1433.773438 430.542969 Z M 1433.773438 693.621094 "/>
</g>
</svg>
