<?xml version="1.0" encoding="UTF-8"?>
<svg id="Layer_1" xmlns="http://www.w3.org/2000/svg" xmlns:xlink="http://www.w3.org/1999/xlink" version="1.1" viewBox="0 0 512 512">
  <!-- Generator: Adobe Illustrator 29.3.0, SVG Export Plug-In . SVG Version: 2.1.0 Build 146)  -->
  <path d="M166.6,43.4c6.1,0,11.5,1.2,16,3.7,4.6,2.5,8.1,6,10.7,10.7s3.8,10.3,3.8,16.9-1.3,12.1-3.9,16.9-6.2,8.6-10.8,11.3-9.9,4.1-15.9,4.1-11.5-1.2-16.1-3.7-8.1-6.1-10.7-10.7c-2.5-4.7-3.8-10.3-3.8-16.9s1.3-12.1,3.9-17c2.6-4.8,6.2-8.6,10.8-11.3,4.7-2.6,10-4,16-4ZM166.2,45c-3.2,0-6,1.3-8.4,3.9-2.4,2.6-4.2,6.2-5.5,10.7-1.3,4.6-1.9,9.8-1.9,15.8s.7,11.4,2.2,16c1.5,4.5,3.5,8,6,10.5,2.5,2.4,5.3,3.7,8.4,3.7s6-1.3,8.4-3.9,4.2-6.2,5.5-10.8c1.3-4.6,1.9-9.8,1.9-15.8s-.7-11.5-2.2-16-3.5-8-6-10.4c-2.5-2.5-5.3-3.7-8.4-3.7Z"/>
  <path d="M163.4,138.7v1.7c-1.9.1-3.2.3-4.2.6-.9.4-1.6,1.1-1.9,2.1s-.4,2.6-.4,4.7v42.9c0,2.1.2,3.6.5,4.7.3,1,.9,1.7,1.9,2.1s2.3.6,4.1.7v1.7c-1.6-.1-3.5-.2-5.9-.2h-15c-2.4,0-4.4.1-5.8.2v-1.7c1.8-.1,3.2-.4,4.1-.7.9-.4,1.5-1,1.9-2.1.3-1,.5-2.6.5-4.7v-42.9c0-2.1-.2-3.7-.5-4.7s-.9-1.7-1.9-2.1c-.9-.4-2.3-.6-4.1-.6v-1.7c1.4.1,3.4.1,5.8.2,2.4.1,5.1.1,7.8.1s4.8,0,7.2-.1c2.4-.1,4.4-.1,5.9-.2ZM193.4,138.7v1.6c-1.9.4-3.8,1.2-5.9,2.4-2.1,1.2-4.3,3.2-6.6,5.9l-16.3,19.4,5-7.2,20.6,32.1c.8,1.3,1.7,2.4,2.6,3.2.9.8,2.1,1.5,3.6,2.1v1.7c-2-.1-4.3-.2-6.8-.2h-11.2c-1.7,0-3.9.1-6.6.2v-1.7c2.4-.1,3.8-.4,4.3-1s.3-1.5-.6-2.9l-12.5-20.3c-.8-1.3-1.5-2.3-2.2-3-.6-.7-1.3-1.1-1.9-1.4-.6-.3-1.5-.4-2.5-.5v-1.8c2.5-.1,4.8-.8,6.8-2.1s4.2-3.3,6.5-6.1l5.1-6.1c2.2-2.6,3.5-4.8,3.9-6.7s0-3.3-1.1-4.4c-1.1-1-2.8-1.6-5.1-1.6v-1.6c2.1.1,4.2.1,6.1.2s4.2.1,6.7.1c3.3,0,6,0,8.1-.3Z"/>
  <path d="M165.3,231.6c3.4,0,6,.4,7.9,1.1,1.8.7,3.4,1.5,4.8,2.3.7.4,1.2.7,1.7.9s.9.3,1.2.3c.9,0,1.6-1.3,1.9-3.8h2c-.1,1.1-.1,2.4-.2,3.9-.1,1.5-.1,3.5-.2,6s0,5.7,0,9.8h-2c-.2-3-.9-5.9-2.1-8.7-1.1-2.8-2.8-5.1-4.9-7-2.1-1.8-4.7-2.7-7.7-2.7s-5.1.8-6.8,2.3-2.7,3.7-2.7,6.5.6,4.3,1.7,5.9,2.8,3.2,5.1,4.8,4.9,3.4,8.1,5.6c2.8,1.8,5.2,3.6,7.4,5.4s3.9,3.8,5.3,6c1.3,2.2,2,4.9,2,8s-1,7-3,9.4c-2,2.5-4.6,4.3-7.8,5.6s-6.8,1.9-10.6,1.9-6.4-.4-8.6-1-3.9-1.4-5.4-2.2c-1.3-.8-2.2-1.2-2.9-1.2s-1.6,1.3-1.9,3.8h-2c.1-1.4.2-3,.2-4.8s.1-4.2.1-7.2v-11.3h2c.2,3.8.9,7.4,1.9,10.7,1.1,3.3,2.7,6,4.9,8s5.2,3,8.9,3,5.5-.8,7.6-2.4,3.1-4,3.1-7.3-1.2-6.5-3.6-8.9-5.5-4.7-9.3-7.2c-2.7-1.8-5.2-3.6-7.6-5.4-2.4-1.8-4.2-3.8-5.7-6.1-1.4-2.3-2.1-5.1-2.1-8.2s.9-6.6,2.7-8.9c1.8-2.3,4.2-4.1,7.2-5.2,2.9-1.1,6-1.7,9.4-1.7Z"/>
  <g>
    <rect x="340.6" y="203" width="7.6" height="84.2" transform="translate(-72.4 315.3) rotate(-45)"/>
    <rect x="371.6" y="274.6" width="6.6" height="2.1" transform="translate(-85.1 345.8) rotate(-45)"/>
    <rect x="308.9" y="210.6" width="7.6" height="5.5" transform="translate(-59.3 283.6) rotate(-45)"/>
    <polygon points="373 279.1 378.4 273.7 387.9 288.6 373 279.1"/>
    <path d="M323.6,192.1s-14.2,6.4-20.9,16.7-17.6,28.7-14.1,32.5c.2.2.5.6.5.6l1,1s1.7-10.5,14.1-26.7c1.3-1.7,2.6-3.3,2.6-3.3l1.2,1.2,5.4-5.4c-3.3-3.3-1.4-6,1.7-7.8,6.1-3.5,8.7-3.4,10.4-5.1,1.7-1.6-1.9-3.7-1.9-3.7ZM308.8,209.5c-.7.7-1.9.7-2.6,0s-.7-1.9,0-2.6,1.9-.7,2.6,0c.7.7.7,1.9,0,2.6Z"/>
    <rect x="298.7" y="241.3" width="84.2" height="7.6" transform="translate(-73.5 312.8) rotate(-45)"/>
    <rect x="309.2" y="272.3" width="2.1" height="6.6" transform="translate(-104 300.1) rotate(-45)"/>
    <rect x="369.8" y="209.6" width="5.5" height="7.6" transform="translate(-41.8 325.9) rotate(-45)"/>
    <polygon points="312.2 279.1 306.9 273.7 297.3 288.6 312.2 279.1"/>
    <path d="M359.7,195.9c1.7,1.7,4.3,1.6,10.4,5.1,3.1,1.8,5,4.5,1.7,7.8l5.4,5.4,1.2-1.2s1.3,1.6,2.6,3.3c12.4,16.2,14.1,26.7,14.1,26.7l1-1s.3-.4.5-.6c3.5-3.9-7.3-22.3-14.1-32.5s-20.9-16.7-20.9-16.7c0,0-3.6,2-1.9,3.7ZM376.4,206.9c.7-.7,1.9-.7,2.6,0s.7,1.9,0,2.6-1.9.7-2.6,0c-.7-.7-.7-1.9,0-2.6Z"/>
  </g>
  <rect x="254.2" y="19.1" width="4.6" height="250.4"/>
  <rect x="256.5" y="165.7" width="172.2" height="4.6"/>
  <g>
    <polygon points="339.2 400.1 339.1 400.1 337.5 404.8 340.8 404.8 339.2 400.1"/>
    <path d="M227.1,372.8c-.3-.4-.6-.7-1.1-1-.4-.2-1-.4-1.6-.4s-1.2.1-1.6.4c-.4.2-.8.6-1.1,1s-.5.9-.6,1.4-.2,1.1-.2,1.6.1,1.1.2,1.6.3,1,.6,1.4.6.7,1.1,1,1,.4,1.6.4,1.2-.1,1.6-.4c.4-.2.8-.6,1.1-1s.5-.9.6-1.4.2-1,.2-1.6-.1-1.1-.2-1.6-.3-1-.6-1.4Z"/>
    <path d="M210.3,399.5c-.2-.1-.5-.2-.8-.3-.3,0-.6-.1-.9-.1h-2.2v3.8h2.2c.3,0,.6,0,.9-.1.3,0,.6-.1.8-.3.2-.1.4-.3.5-.6.1-.2.2-.6.2-1s-.1-.7-.2-1c-.1-.1-.3-.3-.5-.4Z"/>
    <path d="M323.7,399.1h-3.1v3.6h3.1c.6,0,1.1-.1,1.4-.4s.5-.8.5-1.4-.2-1.1-.5-1.4-.8-.4-1.4-.4Z"/>
    <path d="M428.7,8.1H77.8v320.8h.2c2.2,40,31.9,81,88.6,122.1,43.1,31.2,85.5,50.5,87.3,51.3l2.7,1.2,2.7-1.2c1.8-.8,44.2-20,87.3-51.3,56.6-41.1,86.4-82.1,88.6-122.1h.2V8.1h-6.7ZM177.2,396.9h3.5l-5,5,5.5,7.7h-3.5l-3.8-5.7-1.6,1.6v4.1h-2.8v-12.8h2.8v5.3l4.9-5.2ZM185.9,409.7v-12.8h2.8v12.8h-2.8ZM194.7,409.7v-12.8h2.8v12.8h-2.8ZM327.2,404.1c.2.2.4.4.6.7.1.3.2.6.3.9.1.3.1.6.1,1v.7c0,.3,0,.5.1.8,0,.3.1.6.1.8.1.3.2.5.3.6h-2.7c-.1-.4-.2-.9-.3-1.5,0-.6-.1-1.1-.2-1.6-.1-.7-.3-1.1-.6-1.5s-.8-.5-1.5-.5h-2.8v5h-2.8v-12.8h6.9c.6,0,1.1.1,1.5.3.5.2.9.4,1.2.8s.6.7.8,1.1c.2.4.3.9.3,1.4,0,.8-.2,1.4-.5,2-.3.5-.8,1-1.5,1.2h0c.2.3.5.4.7.6ZM332.9,409.7l4.8-12.8h2.9l4.8,12.8h-2.9l-1-2.8h-4.8l-1,2.8h-2.8ZM311.8,404.9c0,1.7-.5,3-1.5,3.9-1,.8-2.3,1.3-4,1.3s-3.1-.4-4-1.2c-1-.8-1.4-2.1-1.4-3.9v-7.9h2.8v7.9c0,.4,0,.7.1,1s.2.6.4.9c.2.3.5.5.8.6.3.2.8.2,1.4.2,1,0,1.7-.2,2.1-.7s.6-1.1.6-2.1v-7.9h2.8v7.9h0ZM310.4,357.5h-107.3v-4.6h107.3v4.6h0ZM285.9,396.9h9.5v2.4h-6.7v2.7h6.2v2.2h-6.2v3.1h6.9v2.4h-9.7v-12.8h0ZM284,382.1v-12.8h2.8l5.3,8.5h0v-8.5h2.6v12.8h-2.8l-5.3-8.5h0v8.5h-2.6ZM270,378.3c.1.3.2.6.4.9.2.3.5.5.8.6.3.2.8.2,1.4.2,1,0,1.7-.2,2.1-.7s.6-1.1.6-2.1v-7.9h2.8v7.9c0,1.7-.5,3-1.5,3.9s-2.3,1.3-4,1.3-3.1-.4-4-1.2c-1-.8-1.4-2.1-1.4-3.9v-7.9h2.8v7.9c0,.3,0,.7,0,1ZM277.6,405.4c-.2-.2-.5-.4-.9-.5s-.8-.3-1.2-.4c-.5-.1-.9-.2-1.4-.4-.5-.1-.9-.3-1.4-.4-.5-.2-.9-.4-1.2-.7-.4-.3-.6-.6-.9-1s-.3-.9-.3-1.5.1-1.2.4-1.7.6-.9,1.1-1.2c.5-.3,1-.6,1.5-.7s1.1-.2,1.7-.2,1.3.1,1.9.2,1.2.4,1.6.7.9.8,1.1,1.3.4,1.1.4,1.9h-2.7c0-.4-.1-.7-.2-1-.1-.2-.3-.5-.5-.6s-.5-.2-.8-.3-.6-.1-1-.1-.5,0-.7.1c-.2,0-.4.1-.6.2s-.3.3-.5.5c-.1.2-.2.4-.2.7s0,.5.1.6.3.3.6.4c.3.1.7.3,1.2.4s1.1.3,1.9.5c.2,0,.6.1,1,.3.4.1.8.3,1.3.6s.8.6,1.1,1.1.5,1,.5,1.8-.1,1.1-.3,1.6-.6.9-1,1.3-1,.6-1.7.9-1.4.3-2.3.3-1.4-.1-2-.3c-.7-.2-1.2-.4-1.8-.8s-.9-.8-1.2-1.4-.4-1.2-.4-2h2.7c0,.4.1.8.2,1.1.1.3.4.5.6.7.3.2.6.3.9.4s.7.1,1.1.1.5,0,.8-.1c.3,0,.6-.1.8-.2.2-.1.5-.3.6-.5s.2-.5.2-.8c.2-.4,0-.7-.1-.9ZM253.8,396.9h3.1l3,5,3-5h3.1l-4.7,7.9v4.9h-2.8v-5l-4.7-7.8ZM262,379.8v2.4h-9v-12.8h2.8v10.4h6.2ZM236.1,377.3v-7.9h2.8v7.9c0,.4,0,.7.1,1s.2.6.4.9.4.5.8.6c.3.2.8.2,1.4.2,1,0,1.7-.2,2.1-.7s.6-1.1.6-2.1v-7.9h2.8v7.9c0,1.7-.5,3-1.4,3.9-1,.8-2.3,1.3-4,1.3s-3.1-.4-4-1.2c-1.1-.9-1.6-2.2-1.6-3.9ZM237,396.9v12.8h-2.8v-12.8h2.8ZM243,396.9h2.8v10.4h6.2v2.4h-9v-12.8ZM228,402v2.2h-6.2v3.1h6.9v2.4h-9.7v-12.8h9.5v2.4h-6.7v2.7h6.2ZM227.1,381.9c-.8.3-1.6.5-2.6.5s-1.9-.2-2.6-.5c-.8-.3-1.4-.8-2-1.4-.5-.6-.9-1.3-1.2-2.1-.3-.8-.4-1.7-.4-2.6s.1-1.8.4-2.6.7-1.5,1.2-2.1,1.2-1.1,2-1.4,1.6-.5,2.6-.5,1.9.2,2.6.5c.8.4,1.4.8,2,1.4.5.6.9,1.3,1.2,2.1.3.8.4,1.7.4,2.6s-.1,1.8-.4,2.6c-.3.8-.7,1.5-1.2,2.1-.6.6-1.2,1.1-2,1.4ZM213.7,401c0,.5-.1,1-.2,1.5-.2.5-.4.9-.8,1.3s-.8.7-1.4.9-1.2.4-2,.4h-2.9v4.6h-2.8v-12.8h5.8c.8,0,1.5.1,2,.4s1,.5,1.4.9.6.8.8,1.3c0,.5,0,1,0,1.5ZM310.4,428.1v4.6h-107.3v-4.6h107.3ZM422.2,324.1c0,21-9.2,41.2-23.3,60l-35.2-46.5-49.4-19.3-57.9-62.4-85.2,89.8-15.4-6.6-41.1,46.1c-14.5-19-24.1-39.6-24.1-61V21.2h331.4l.2,302.9h0Z"/>
  </g>
  <g>
    <path d="M323,111c-.6-2.2-1.3-3.8-2.2-4.7-.9-.9-1.8-1.4-2.7-1.4-1.4,0-2.6,1-3.7,2.9-1.1,2-1.7,5.3-1.7,9.9s.5,7.5,1.5,9.3c1,1.8,2.2,2.7,3.7,2.7s1.5-.2,2.3-.6c.9-.4,1.7-1.1,2.4-2,.4-.5.7-1.1,1-1.8.1-1.6.2-3.2.2-5.1.1-3.8-.3-6.9-.8-9.2Z"/>
    <path d="M258.8,11.9v158.3h173.2V11.9h-173.2ZM360.4,47.7c1.4-2.2,3.3-3.8,5.6-4.9,2.3-1.1,4.9-1.7,7.6-1.7,4.5,0,8,1.5,10.6,4.4,2.6,3,3.9,7.1,3.9,12.5s-.5,6.2-1.6,8.8c-1,2.6-2.4,4.9-4.2,6.8-1.7,1.9-3.7,3.5-5.8,4.8s-4.3,2.3-6.5,3.1c-2.2.8-4.3,1.3-6.2,1.6l-.2-1.2c1.8-.5,3.6-1.2,5.4-2.2s3.4-2.2,4.9-3.9c1.5-1.7,2.6-4,3.5-6.9.4-1.1.6-2.4.8-3.8-.1.2-.2.4-.4.6-1,1.2-2.1,2-3.5,2.5s-2.7.8-4.1.8c-2.2,0-4.2-.5-6-1.6s-3.3-2.6-4.4-4.6-1.7-4.4-1.7-7.2c.2-3.1.9-5.8,2.3-7.9ZM308.6,44.4c3.5,0,6.4-.3,8.8-.8s4.4-1.2,6.1-2.3v26.5c0,1.8.3,3,1,3.7s1.8,1,3.4,1v1.3c-.8,0-2,0-3.6-.2s-3.2,0-4.9,0-4.1,0-6,0c-2,0-3.5,0-4.5.2v-1.3c1.8,0,3.2-.3,4.2-1s1.5-2,1.5-4v-15c0-2-.2-3.4-.5-4.4-.4-.9-1-1.6-1.9-1.8-.9-.3-2.1-.4-3.7-.4v-1.5h.1ZM331.6,129.5c-1,2.6-2.4,4.9-4.2,6.8-1.7,1.9-3.7,3.5-5.8,4.8s-4.3,2.3-6.5,3.1-4.3,1.3-6.2,1.6l-.2-1.2c1.8-.5,3.6-1.2,5.4-2.1s3.4-2.2,4.9-3.9,2.6-4,3.5-6.9c.4-1.1.6-2.4.8-3.8-.1.2-.2.4-.4.6-1,1.1-2.1,2-3.5,2.5s-2.7.8-4.1.8c-2.2,0-4.2-.5-6-1.6s-3.3-2.6-4.4-4.6-1.7-4.4-1.7-7.2.7-5.8,2.1-8,3.3-3.8,5.6-4.9c2.3-1.1,4.9-1.7,7.6-1.7,4.5,0,8,1.5,10.6,4.4s3.9,7.1,3.9,12.5c.1,3.2-.4,6.2-1.4,8.8ZM382.8,136.3c-.8,0-2-.1-3.6-.1-1.6-.1-3.2-.1-4.9-.1s-4.1,0-6,.1c-2,.1-3.5.1-4.5.1v-1.3c1.8,0,3.2-.3,4.2-1s1.5-2,1.5-4v-15c0-2-.2-3.4-.5-4.4-.4-.9-1-1.6-1.8-1.8-.9-.3-2.1-.4-3.7-.4v-1.4c3.5,0,6.5-.3,8.8-.8,2.3-.4,4.4-1.2,6.1-2.3v26.5c0,1.8.3,3,1,3.7s1.8,1,3.4,1v1.2h0ZM392.7,92.7h-45.7v45.7h-3.3v-45.7h-45.7v-3.3h45.7v-45.6h3.3v45.7h45.7v3.2Z"/>
    <path d="M372.8,67.2c.7,0,1.5-.2,2.3-.6.9-.4,1.7-1.1,2.4-2,.4-.5.7-1.1,1-1.8.1-1.6.2-3.2.2-5.1,0-4-.3-7.1-.9-9.3s-1.3-3.8-2.2-4.7c-.9-.9-1.8-1.4-2.7-1.4-1.4,0-2.6,1-3.7,3s-1.7,5.3-1.7,9.9.5,7.5,1.5,9.3c1.1,1.8,2.4,2.7,3.8,2.7Z"/>
  </g>
</svg>