<?xml version="1.0" encoding="utf-8"?>
<!-- Generator: Adobe Illustrator 24.1.3, SVG Export Plug-In . SVG Version: 6.00 Build 0)  -->
<svg version="1.1" id="Layer_1" xmlns="http://www.w3.org/2000/svg" xmlns:xlink="http://www.w3.org/1999/xlink" x="0px" y="0px"
	 viewBox="0 0 2000 2000" enable-background="new 0 0 2000 2000" xml:space="preserve">
<g>
	<path d="M1893.4,850.4c0,0-102.7-237.8-111.3-262.8c-2.1-6.1-2.7-11.2-2.4-15.4l0,0c0,0-1.8-3.6,3.4-10.8c1.2-1.9,2.4-3.3,3.6-4.4
		c2-2.2,4.6-4.6,7.9-7.3c18.6-15,68.7-54.5,67.3-136c-0.8-47.4-16.2-80-34.2-102.3c-5.1-6.2-10.5-11.9-16.3-17.2
		c-7.7-6.9-15.1-12.3-21.6-16.5c-29.2-17.5-63.5-22.6-92-23l0,0c0,0-4.4-0.2-11.6,0c-0.4,0-0.8,0-1.2,0c-8.4,0.1-16.7,0.8-24.6,1.7
		c-14.4,1.6-31.4,4.4-47.6,9.7c-2.5,0.7-4.8,1.5-7,2.3c0,0-0.1,0-0.1,0l0,0c-3,1.1-5.7,2.3-8.2,3.5c-0.1,0-0.1,0.1-0.2,0.1
		c-0.1,0-0.1,0.1-0.2,0.1c-28.2,13.8-30,34.7-30,45.4c0,9.3,0,41.1-0.3,91c-0.2,33-29.1,44.5-44.9,61.3c-4.5,5.3-9.2,13-10,22.9
		c-0.7,31,16.5,37.3,35.3,62.1c14.1,18.7,16.1,42.1,16.2,53c-3.2,114.3-7.8,256.5-6.6,297.3c1.8,58.7,57.8,59.4,57.8,59.4
		s64.2,0.1,62-55.2c-1.1-28.1-6.4-131.8-9.8-249.9c2.3-8.5,7.2-14.7,16.9-14.2c17.3,0.9,19.3,14,19.3,14s82.9,213.7,97.9,246.2
		c15,32.5,56.5,41.1,84.3,16.1S1893.4,850.4,1893.4,850.4z M1754.6,434.2c-4.2,26.9-17.5,46-28.9,57.8c-1.5,1.7-3,3.3-4.5,4.7
		c-2.9,2.7-6.4,5.4-10.3,8.1c-2.3,1.7-3.8,2.5-3.8,2.5c-10.4,5.9-24.9,11.1-32.6,5.3c-5.1-3.9-6.4-10.7-6.7-14.9c0-0.2,0-0.5,0-0.7
		c0.1-4.8,1-84.9,1.1-109.8c0,0,0,0,0,0c0-1,0-1.9,0.1-2.9c0.2-2.9,0.5-6.1,1-9.4c2-11.9,9.3-17.3,15.5-19.7c3.2-1.1,7.1-2,12-2
		c2.5,0.1,5.1,0.3,7.6,0.6c0.1,0,0.2,0,0.4,0c0.2,0,0.4,0.1,0.6,0.1c1.4,0.2,2.8,0.4,4.1,0.6c7.6,1.3,14.9,3.8,21.3,7.4
		c0.4,0.1,0.7,0.3,1.1,0.6c0,0,0.1,0.1,0.1,0.1c6.5,4,12,9.4,15.8,16.4C1754.8,389.7,1758.9,406.3,1754.6,434.2z"/>
	<path d="M465.1,434.9c-4.8-9.3-13.4-22.2-32.4-26.4c-5.7-1.3-11.7-1.9-17.8-1.9c-19.4,0-36.4,6.4-44.5,16.6
		c-6.3,8.1-13.1,18-16.4,29.6c0,0-8.2,21.5-1.8,41.3c0,0,0.2,0.5,0.5,1.2c1.4,3.9,3.3,7.6,6,11.2c5.8,8.8,15.8,20.3,32,27.3
		c0.8,0.4,1.7,0.7,2.5,1.1c1.4,0.6,2.9,1.1,4.4,1.5c1.7,0.6,3.5,1.1,5.3,1.6c0.6,0.1,1.2,0.2,1.8,0.3c5.3,1.1,10.9,1.9,16.9,1.9
		c6.8,0,14.1-0.7,21.8-2.2c7.2-1.4,13.7-7.5,17-11.1C482.4,502.4,484,471.5,465.1,434.9"/>
	<path d="M997.6,1270.1c-17.3-38.9-56.1-61.5-93.9-72.5c-0.1,0-0.3-0.1-0.4-0.1c-18.4-5.3-37.5-6.8-56.5-5.2
		c-13.4,1.8-39.2,3.4-66.5,18.9c-36.1,20.5-51.8,61.5-62.8,92.8c0,0-40.7,143.3-0.1,315c11.6,49.3,40.1,92,79.7,117.6
		c10.9,7,18.9,10.3,27.5,13.6c17.7,6.8,37.7,7.6,57.6,3.9c43.6-8,89.5-53.2,111.7-106.2C1050.8,1512,1025,1331.6,997.6,1270.1
		 M904.2,1546.1c-5.9,15-15.6,24-24.9,29.4c-34.1,19.6-59.5-17.1-68.1-74.9c-5.8-39.3-4.4-73.2,0.3-100.9
		c10.1-60,41.1-84.1,77.2-65.9C923.4,1354.2,934.2,1470,904.2,1546.1"/>
	<path d="M475.6,693.6c-0.7-16.8-2.3-49.7-3.4-63.4c-1.5-18.1-13.6-34.1-31-39.5c-16.2-5-32.7-5.4-32.7-5.4
		c-10.3,0-20.7,2.8-28.9,9.1c-10.2,7.8-17.1,19.7-18.4,33.2l-2.1,22.3c-1.3,24.9-1.2,175.6-0.9,200c-0.2,18.7-0.3,38,2.4,55.3
		c4,25.6,25.2,45.6,51,47.7c3.4,0.3,7,0.5,10.9,0.5c20.8,0,38.4-12.6,44.9-32.2c5-14.9,6.1-30.7,7.3-47.5c2-27.5,3.9-56.7,3.7-85.2
		C478.3,756.6,476.9,724.5,475.6,693.6"/>
	<path d="M1388.1,416.6c3.6-20,19.4-35.6,39.5-38.8c16.8-2.7,36.8-5.1,54.5-7c37.7-4,64.3-39.5,56.4-76.6
		c-2.5-11.5-12.9-19.8-24.6-19.5c-35.1,0.7-111.5,3.4-164.6,14c-36,7.2-62.6,37.6-65.3,74.2c-7.6,102.4-21.7,333.1-14.1,478.8
		c2.9,55,44.8,99.8,99.4,107.1c14.9,2,39.5,2.8,63.4,3.5c39.3,1.1,72.8-30,72.6-69.3c-0.6-23.4-19.4-45.4-42.8-45.5
		c-0.2,0-0.4,0-0.6,0l-48.8-0.2c-18.4-0.1-34-13.7-36.2-31.9c-1.2-10-1.9-20.8-2.4-31.1c-1.1-25.7,14.6-49.1,38.7-58
		c0,0,13.4-4.9,27.2-13.5c14-8.7,22.4-24.1,22.6-40.6c0.1-10.8-0.6-21.7-1.4-30.3c0-0.1,0-0.2,0-0.3c-0.9-10.1-9.1-18.1-19.3-18.7
		c-4-0.3-8.5-0.5-13.1-0.8c-8.5-0.5-17.7-1-25.9-1.4c-14.9-0.7-26.6-12.8-27.2-27.6c-2.1-58.6,6-133.5,11.9-165.9L1388.1,416.6z"/>
	<path d="M508,252.4c-6.6-6.7-15.9-10-25.3-9.9c-94.1,0.9-249.7,27.7-258.5,29c-88,16.7-110.4,97.2-116.1,140.7
		c-0.9,9.3-1.5,18.7-1.9,28.3c-1.8,42.3-2.8,92-3.6,133.7c0,14.2-1.6,167.8-1.8,182v0c0.2,41.6-1.8,80.9,0,125.4
		c0.3,7.8,1.1,15.3,2.3,22.4c0.1,0.4,0.1,0.7,0.2,1.1c0.6,3.1,1.4,6,2.4,8.9v0c10.7,33,43.7,52.4,78.1,43
		c30.1-8.8,38.6-33.6,38.5-46.1c-0.1-8.9-0.3-20.5-1-33.5v0c-1.6-27.4-1.2-61.3-4.2-92.4l-4.8-60.6c-0.4-5.5,0.3-11.2,3-16
		c3.7-6.8,10-12.1,17.9-14.3l39.8-11.1c9.5-2.6,18.4-7.2,25.5-14.1c6.7-6.5,12.1-15.1,12.4-26.3v0c0.3-11.3-0.7-22.5-2.4-35.8
		c0,0,0,0,0,0c-0.2-1.7-1.1-4.8-1.6-6.3l-2.2-4.6c-0.6-1-1.3-2-2.1-2.9c-1.2-1.3-3.4-3.7-4.8-4.9c0,0,0,0,0,0
		c-3.9-3.3-8.8-6.1-14.8-8.5c-8.1-2.8-31-11-38.3-14.6c-5.7-2.8-11.4-5.7-16.2-9.5c-1.4-1.1-2.8-2.4-4-3.7c-0.9-1-2.4-3.3-3.2-4.5
		c-0.6-0.9-1.1-1.9-1.6-2.9c-0.6-1.3-1.1-3.2-1.5-4.7c-3-11-4.1-25-4-40s1.4-30.9,3.2-45.8c4.3-35.9,33-65,68.1-72.4l116.9-19.8
		c8.6-1.6,73.2-12.1,81.2-16.1c10.1-5,18.5-10.9,24.5-19.9c6.1-9,9.9-20.9,10.7-38C519.6,270.2,514.7,259.3,508,252.4"/>
	<path d="M465.3,1152.8c8.1-11.8,22-18.1,36.3-18.4c17.9-0.4,42.6,6.1,51.4,42.9c2.8,21.6,19,39.1,39.8,45.3
		c34.8,10.3,69.4-17.2,70.1-53.5c1.3-66.1-22.1-140.9-98.5-162.9c-4.3-1.2-10.5-2.7-15.1-3.6c-54.5-10.8-111.8,0.3-158.1,33.1
		c-26.7,18.9-49,46-57.6,84.7c-1.3,7-6.6,41.6,2.8,89.5c11.6,59.2,46,112.6,94.6,153.4c5.7,4.8,11.7,10,17.8,15.7
		c36.8,34.2,77.9,84,82.7,138.7c1.7,36.1-8.5,58.8-33.4,75.6c-3.4,2.3-8.5,3.9-14.2,4.9c-54,3.7-66.7-50.3-75.7-91.9
		c-5.9-27.2-42.8-30.4-65.1-21c-31.6,13.4-37.5,36.2-36.9,70.4c2.1,126.3,79.9,173.3,119.8,189.2c7.5,2.7,15.2,5.2,23.2,7.3
		c12.5,2.9,25.5,4.3,38.8,4.2c78.6-4.4,131.9-47,151.3-105.4c1.6-4.8,3.1-9.4,4.4-13.6c53.3-187.1-83.4-326-128.9-366
		c-17.8-14-46.2-49.3-52.1-65.5C456.7,1189.3,454,1169.3,465.3,1152.8"/>
	<path d="M1693.6,1048.5c-8.4-4.2-17.6-6.3-27-7.1c-65.8-5.4-316.4-12.7-413.5-4.2c-24.6,2.1-40.7,27-34.4,52.6
		c6,20.8,18.1,30.4,36,35.9l143.6,27.2c33.7,7,57.4,36.3,56.3,70.7c0.8,68.8-16.4,375.6-19.8,479c-0.5,14.9,2.9,39.7,24,48.1
		c23.6,9.4,55.5,10.8,71-9.3c12.3-16,14.5-47.7,15.3-68.9c2.4-70.5,20.5-390,24.4-456.6c0.3-6,1-11.9,2.3-17.7
		c3.8-16.5,11.1-28.8,23.5-38c4.6-3.4,12.7-7.1,18.1-8.7c28.6-8.7,102.3-21.7,104-65.4C1717.1,1069.1,1707.5,1055.5,1693.6,1048.5"
		/>
	<path d="M1365.8,1210.6c-2.2-0.8-5.3-1.4-9.1-2c-18.2-3.3-42.4-3.7-68-3.1c-57.4-0.1-124.3,3.1-124.3,3.1
		c-35.2-2.4-66.1,22.7-70.3,57.2c-4.1,32.6-5.3,76.5-7.3,112.9c-9,163.5-3.6,231.6-0.1,324.6c1,26.3,23.2,47.5,50.7,47.9
		c0.4,0,0.8,0,1.2,0c29.3,0.3,56.2-20,58.5-47.9c2-23.6,1.4-24.9,0-45c-1.9-16.4-3.3-34.3-4.1-52.9c-0.8-17.9,7.8-34.5,22.1-44.4
		c5.4-3.8,11.7-6,18.2-7.2c12.2-2.3,31.2-5.1,46.7-7.8c24.6-4.2,42.9-25.9,41.6-50.8c0-0.9-0.1-1.7-0.2-2.5
		c-0.8-7.8-4-15.4-9.8-20.6c-4.2-3.8-10.1-7-18.4-9.5c-5.1-1.5-61.6-8.3-73.2-12.2c-15.3-5.8-25.1-20.8-24.1-36.9
		c2.3-39.9,4.8-66.8,4.8-66.8c1.3-20.1,18.2-39.8,38.6-39.8c16.5-1.1,111.6,5,128.5-0.1c7.7-2.3,14.1-6.5,19.1-11.8
		C1407.8,1272.1,1395.5,1218.7,1365.8,1210.6"/>
	<path d="M1214.5,684.8c-2.1-35.2-23.8-52.8-41.4-61.8c-13.6-6.9-52.1-7.9-75.7-6.9c-1.1,0.1-2.3,0.2-3.6,0.2
		c-5.3,0.3-9.6,0.7-12.3,1.2c-0.3,0.1-0.6,0.1-0.9,0.2c-10.9,2.3-17.6,7.1-21.6,11.6c-1.4,1.9-2.7,4.1-4.1,6.7
		c-6.8,12.7-13.7,38.6-7.6,63.4c6.1,24.8,31.9,20.3,50.3,23.6c18.4,3.3,22.4,11.9,23,27.3c0.6,15.4,2.3,45.7-6.2,80.6
		c-8.5,34.8-29.4,45.7-44.2,44.6c-14.8-1-37.7-2.8-48-60.2c-7.1-40-9-85.2-10-132.7c-1.8-39.7-2.7-83.9-1.2-126.4
		c1.1-58.5,5.4-118.8,13.9-137.2c11.7-25.4,49-30.9,62.3-7.9c13.3,23,5.3,72.4,7.4,104.8c0.4,6.1,1.5,11.1,3.1,15.2
		c2,4.7,7.8,14.7,22.8,19.4c0,0,0.1,0,0.1,0c0.1,0,0.3,0.1,0.4,0.1c0.5,0.2,1.1,0.3,1.7,0.5c1.8,0.4,4.3,1,7.5,1.5c0,0,0,0,0,0
		c0.1,0,0.2,0,0.3,0c0.4,0.1,0.8,0.1,1.2,0.2c8,1.1,19,1.8,29.8,0.1c0,0,0,0,0,0c38.6-4.6,39.8-29.2,39.8-29.2l0,0
		c0.8-4.1,1-8.8,0.9-14.5c-0.8-23.6-1.2-47.1-2.3-73.1c-1.1-26-2.6-76.5-22.4-109.3c-19.8-32.8-37.5-47.8-79.9-53.9
		c-42.4-6.1-84.4,1.5-117.4,23.7c-33.1,22.2-58.8,53.9-67.4,133.4s-6.5,165.2-6.3,190.4c0.2,25.2,3.1,142.2,4.6,169.1
		c1.5,26.9,6,83.5,21.5,126.7c15.5,43.2,51.8,89.1,95.6,99.4s98.8,0.8,132.1-30.9c33.3-31.8,48.5-82.3,54.1-126.8
		C1219.8,813.3,1216.6,720,1214.5,684.8z"/>
	<path d="M933.5,1073.2c-11.6-16.7-44.5-28.6-65.1-80.9c-20.6-52.3-22.2-110.5-24.7-152.1c-2.5-41.7-6-127.4-6.3-169.4
		c-0.3-42,0.7-174.4,1.1-207.7c0.4-33.3,4.5-59.1-8.5-84.1c-13-25-42.1-32-63.7-34.1c-6.3-0.6-14-0.7-22.1-0.9
		c-53.6-0.9-54.3-18.6-80.4-43.3c-14.7-14-34-15.8-48-14.8c-39.9,4-64.1,25.3-65.6,56.2c-1.5,32-1.3,231,0,306.7
		c1.3,75.7-1.6,193.9-1.8,239.7c-0.2,30.4,10.2,46.7,23.1,54.6l0,0c0,0,11.9,9,41.4,7.4c0,0,0,0,0,0c0.9,0,1.8-0.1,2.7-0.2
		c25.7-2.3,35.7-17.3,39.6-27.3c6.5-20.4,6.3-49.8,6.1-69.1c-0.3-28.7-2.6-293-3.4-334.2c-0.8-41.2,13.8-54.5,29.6-58.2
		c15.8-3.8,40.3,4.4,45.1,37.8c4.8,33.4,1,155.3,1.2,184.5c0.2,29.1,1.7,133.7,2.9,191.9c1.2,58.2,7.5,112.3,31.8,175.2
		c24.3,62.8,56.4,85,82.8,96.2s59.8,4.7,75.3-13.5C942.3,1115.2,945.2,1089.9,933.5,1073.2z"/>
</g>
</svg>
